<svg xmlns="http://www.w3.org/2000/svg" viewBox="0 0 64 64"><defs><linearGradient id="a" x1="0%" y1="0%" x2="100%" y2="100%"><stop offset="0%" stop-color="#549183"/><stop offset="100%" stop-color="#457a6d"/></linearGradient></defs><circle cx="32" cy="32" r="30" fill="url(#a)"/><circle cx="32" cy="32" r="28" fill="none" stroke="#3a5a5a" stroke-width="1.5"/><circle cx="32" cy="32" r="30" fill="none" stroke="#3a5a5a" stroke-width="0.5"/><g stroke="#3a5a5a" stroke-width="2"><line x1="32" y1="6" x2="32" y2="10"/><line x1="32" y1="54" x2="32" y2="58"/><line x1="6" y1="32" x2="10" y2="32"/><line x1="54" y1="32" x2="58" y2="32"/></g><g stroke="#3a5a5a" stroke-width="1" opacity="0.6"><line x1="32" y1="12" x2="32" y2="14"/><line x1="32" y1="50" x2="32" y2="52"/><line x1="12" y1="32" x2="14" y2="32"/><line x1="50" y1="32" x2="52" y2="32"/></g><g transform="rotate(30 32 32)"><line x1="32" y1="32" x2="32" y2="14" stroke="#f5a623" stroke-width="2.5" stroke-linecap="round"/><line x1="32" y1="32" x2="44" y2="32" stroke="#3a5a5a" stroke-width="2" stroke-linecap="round"/></g><circle cx="32" cy="32" r="4" fill="#3a5a5a"/><circle cx="32" cy="32" r="2" fill="#f5a623"/><circle cx="38" cy="20" r="6" fill="white" opacity="0.15"/></svg>